<svg width="28" height="34" viewBox="0 0 28 34" fill="none" xmlns="http://www.w3.org/2000/svg">
<path d="M5.6665 8.66672V5.33339C5.66653 4.36818 5.94591 3.42362 6.47095 2.6137C6.99598 1.80379 7.7442 1.16315 8.62531 0.769121C9.50642 0.375089 10.4828 0.244506 11.4364 0.393135C12.3901 0.541764 13.2804 0.963251 13.9998 1.60672C14.7193 0.963251 15.6095 0.541764 16.5632 0.393135C17.5169 0.244506 18.4933 0.375089 19.3744 0.769121C20.2555 1.16315 21.0037 1.80379 21.5287 2.6137C22.0538 3.42362 22.3331 4.36818 22.3332 5.33339V8.66672H24.8332C25.4962 8.66672 26.1321 8.93011 26.6009 9.39895C27.0698 9.86779 27.3332 10.5037 27.3332 11.1667V27.8417C27.3332 29.3866 26.7195 30.8682 25.6271 31.9606C24.5347 33.053 23.0531 33.6667 21.5082 33.6667H7.33317C5.56506 33.6667 3.86937 32.9643 2.61913 31.7141C1.36888 30.4639 0.666504 28.7682 0.666504 27.0001V11.1667C0.666504 10.5037 0.929896 9.86779 1.39874 9.39895C1.86758 8.93011 2.50346 8.66672 3.1665 8.66672H5.6665ZM16.7248 31.1667C16.0449 30.1914 15.6813 29.0306 15.6832 27.8417V11.1667H3.1665V27.0001C3.1665 27.5472 3.27428 28.089 3.48367 28.5946C3.69307 29.1001 3.99998 29.5594 4.38689 29.9463C4.7738 30.3332 5.23313 30.6402 5.73866 30.8496C6.24418 31.0589 6.786 31.1667 7.33317 31.1667H16.7248ZM13.1665 8.66672V5.33339C13.1665 4.67035 12.9031 4.03446 12.4343 3.56562C11.9654 3.09678 11.3295 2.83339 10.6665 2.83339C10.0035 2.83339 9.36758 3.09678 8.89874 3.56562C8.4299 4.03446 8.1665 4.67035 8.1665 5.33339V8.66672H13.1665ZM15.6665 8.66672H19.8332V5.33339C19.8332 4.81878 19.6745 4.31669 19.3786 3.89566C19.0827 3.47463 18.664 3.15517 18.1798 2.98089C17.6956 2.8066 17.1695 2.78599 16.6731 2.92186C16.1768 3.05773 15.7344 3.34346 15.4065 3.74005C15.5748 4.24005 15.6665 4.77672 15.6665 5.33339V8.66672ZM18.1832 27.8417C18.1832 28.7236 18.5335 29.5693 19.157 30.1929C19.7806 30.8164 20.6263 31.1667 21.5082 31.1667C22.39 31.1667 23.2357 30.8164 23.8593 30.1929C24.4829 29.5693 24.8332 28.7236 24.8332 27.8417V11.1667H18.1832V27.8417Z" fill="white"/>
</svg>
