<svg width="41" height="40" viewBox="0 0 41 40" fill="none" xmlns="http://www.w3.org/2000/svg">
<path d="M20.9273 18.1456V18.6456L21.4273 18.6456C22.0911 18.6457 22.7385 18.8514 23.2805 19.2346C23.8224 19.6178 24.2323 20.1596 24.4536 20.7854C24.4722 20.8382 24.4803 20.8942 24.4773 20.9502C24.4743 21.0062 24.4603 21.0611 24.4361 21.1117C24.4119 21.1624 24.378 21.2077 24.3362 21.2452C24.2945 21.2828 24.2458 21.3117 24.1929 21.3304C24.1399 21.3491 24.0839 21.3571 24.0278 21.3542C23.9718 21.3512 23.9169 21.3372 23.8663 21.313C23.764 21.2641 23.6854 21.1766 23.6476 21.0697L23.6475 21.0695C23.4851 20.6104 23.1844 20.213 22.7868 19.9319C22.3891 19.6509 21.9141 19.5 21.4272 19.5002L20.9273 19.5003V20.0002V23.7092V24.2092H21.4273C22.2784 24.2092 23.0947 24.5473 23.6965 25.1491C24.2983 25.7509 24.6364 26.5672 24.6364 27.4183C24.6364 28.2694 24.2983 29.0856 23.6965 29.6874C23.0947 30.2892 22.2784 30.6273 21.4273 30.6273H20.9273V31.1273V31.5546H20.0728V31.1273V30.6273L19.5728 30.6273C18.9091 30.6273 18.2617 30.4215 17.7197 30.0383C17.1777 29.6551 16.7679 29.1134 16.5466 28.4876L16.5468 28.4875L16.5417 28.4744C16.5212 28.4211 16.5115 28.3642 16.5133 28.3071C16.5151 28.25 16.5284 28.1939 16.5523 28.142C16.5762 28.0901 16.6102 28.0435 16.6525 28.005C16.6947 27.9665 16.7442 27.9369 16.798 27.9179C16.8519 27.8988 16.909 27.8908 16.9661 27.8942C17.0231 27.8977 17.0788 27.9125 17.13 27.9379C17.1812 27.9632 17.2268 27.9986 17.2641 28.0419C17.3014 28.0852 17.3296 28.1355 17.3471 28.1899L17.3494 28.1969L17.3518 28.2039C17.6763 29.1186 18.5479 29.7728 19.5728 29.7728H20.0728V29.2728V25.5637V25.0637H19.5728C18.7217 25.0637 17.9055 24.7256 17.3037 24.1238C16.7019 23.522 16.3638 22.7058 16.3638 21.8547C16.3638 21.0036 16.7019 20.1874 17.3037 19.5856C17.9055 18.9837 18.7217 18.6456 19.5728 18.6456H20.0728V18.1456V17.7184H20.9273V18.1456ZM20.0728 20.0002V19.5002H19.5728C18.9484 19.5002 18.3495 19.7482 17.9079 20.1898C17.4664 20.6314 17.2183 21.2302 17.2183 21.8547C17.2183 22.4792 17.4664 23.078 17.9079 23.5196C18.3495 23.9612 18.9484 24.2092 19.5728 24.2092H20.0728V23.7092V20.0002ZM20.9273 29.2728V29.7728H21.4273C22.0518 29.7728 22.6507 29.5247 23.0922 29.0832C23.5338 28.6416 23.7819 28.0427 23.7819 27.4183C23.7819 26.7938 23.5338 26.1949 23.0922 25.7534C22.6507 25.3118 22.0518 25.0637 21.4273 25.0637H20.9273V25.5637V29.2728Z" fill="#FAFAFA" stroke="#FAFAFA"/>
<path d="M27.7695 12.5772L28.0001 12.8203C29.8981 14.8211 31.4858 17.0948 32.7105 19.5658L32.7115 19.5677C33.9873 22.1703 34.7037 24.8133 34.5867 27.1301L34.5867 27.1301C34.4723 29.3912 33.5716 31.3572 31.5218 32.806L31.5218 32.806C29.4129 34.296 25.9467 35.3336 20.5354 35.3336C15.1198 35.3336 11.6397 34.3141 9.51316 32.8421L9.51293 32.842C7.44943 31.412 6.53763 29.472 6.41014 27.2374L27.7695 12.5772ZM27.7695 12.5772L27.457 12.698M27.7695 12.5772L27.457 12.698M27.457 12.698C23.1083 14.3797 17.8707 14.3798 13.5219 12.6998L13.3417 13.1662L12.9752 12.8262C11.1573 14.7856 9.46566 17.1897 8.25095 19.6929L8.25091 19.6929M27.457 12.698L8.25091 19.6929M8.25091 19.6929C6.98037 22.3123 6.2784 24.9432 6.41013 27.2372L8.25091 19.6929ZM30.3428 6.18139C30.7832 6.39923 31.1642 6.60759 31.4775 6.79428L28.3457 11.3725L28.114 11.7111L28.4009 12.0044C30.3394 13.9861 32.1697 16.5164 33.4805 19.1919C34.7935 21.8721 35.5679 24.6624 35.441 27.1735C35.3151 29.6637 34.3054 31.8863 32.0163 33.5035C29.7051 35.1363 26.0382 36.1881 20.5364 36.1881C15.0332 36.1881 11.3544 35.1551 9.02802 33.5441C6.72448 31.9489 5.6991 29.7543 5.55803 27.2856C5.41571 24.7951 6.17576 22.0153 7.48354 19.3201C8.7889 16.6299 10.6229 14.0598 12.5812 11.9993L12.8589 11.7071L12.6323 11.3738L9.52247 6.79791C9.67984 6.70521 9.8536 6.60746 10.043 6.50656L10.043 6.50656L10.0447 6.50564C10.2353 6.40316 10.4408 6.29767 10.6614 6.19013L10.8573 6.09459C13.1034 5.02401 16.6645 3.80945 20.5364 3.80945C24.4385 3.80945 27.9975 5.04283 30.2165 6.12006L30.3412 6.18057C30.3417 6.18084 30.3423 6.18111 30.3428 6.18139ZM29.7117 7.86178L30.2968 7.00635L29.2631 7.08078C26.6696 7.26751 23.6003 7.87479 20.6554 8.7274C18.6714 9.30056 16.4387 9.21929 14.3339 8.83106C13.8046 8.73294 13.279 8.61613 12.758 8.48086L11.4726 8.14712L12.2188 9.24574L13.9991 11.8671L14.091 12.0024L14.245 12.0572C18.1692 13.4543 22.7996 13.4542 26.7245 12.0592L26.5571 11.588L26.9698 11.8703L29.7117 7.86178ZM14.4877 7.99046L14.4881 7.99055C16.523 8.36535 18.6079 8.42979 20.4168 7.90582L20.4175 7.90561C22.3859 7.33216 24.388 6.88116 26.4122 6.5552L26.4768 5.58279C24.7353 5.05845 22.6905 4.66397 20.5354 4.66397C17.2536 4.66397 14.2063 5.57787 12.08 6.48035L12.2754 6.94061L12.1328 7.41985C12.8897 7.64501 13.6821 7.84132 14.4877 7.99046Z" fill="#FAFAFA" stroke="#FAFAFA"/>
</svg>
